<svg width="20" height="17" viewBox="0 0 20 17" fill="none" xmlns="http://www.w3.org/2000/svg">
<path d="M10.0449 0.245117L15.9004 3.97168C16.7657 4.52233 17.29 5.47727 17.29 6.50293V14.8301H19.5479V16.8301H0V14.8301H2.25781V6.50293C2.25785 5.47727 2.78215 4.52233 3.64746 3.97168L9.50195 0.245117L9.65918 0L9.77344 0.0722656L9.88867 0L10.0449 0.245117ZM10 11C9.44771 11 9 11.4477 9 12V14.8301H11V12C11 11.4477 10.5523 11 10 11ZM4.7207 5.65918C4.43247 5.84275 4.25785 6.16119 4.25781 6.50293V14.8301H7V12C7 10.3431 8.34315 9 10 9C11.6569 9 13 10.3431 13 12V14.8301H15.29V6.50293C15.29 6.16119 15.1154 5.84275 14.8271 5.65918L9.77344 2.44336L4.7207 5.65918Z" fill="white"/>
</svg>
