<svg width="20" height="15" viewBox="0 0 20 15" fill="none" xmlns="http://www.w3.org/2000/svg">
<path d="M7.5 0C8.60457 1.61067e-08 9.5 0.895431 9.5 2V4.94434L11.9121 3.19141L12.0234 3.34473L12.125 3.21875L16.374 6.61816C17.0856 7.18742 17.4999 8.0497 17.5 8.96094V12.8311H19.5479V14.8311H0V12.8311H2V2C2 0.895431 2.89543 1.61064e-08 4 0H7.5ZM8.41211 8.20996C8.15337 8.39814 8 8.69862 8 9.01855V12.8311H15.5V8.96094C15.4999 8.65741 15.3619 8.37037 15.125 8.18066L11.9463 5.6377L8.41211 8.20996ZM4 12.8311H6V9.01855C6 8.05875 6.45912 7.15633 7.23535 6.5918L7.5 6.39844V2H4V12.8311Z" fill="white"/>
</svg>
